<?xml version="1.0" encoding="UTF-8"?>
<svg id="a" data-name="Layer 1" xmlns="http://www.w3.org/2000/svg" xmlns:xlink="http://www.w3.org/1999/xlink" viewBox="0 0 81 79">
  <defs>
    <linearGradient id="b" x1="37.33" y1="28.59" x2="28.18" y2="44.1" gradientTransform="translate(0 79.53) scale(1 -1)" gradientUnits="userSpaceOnUse">
      <stop offset="0" stop-color="#663500"/>
      <stop offset=".39" stop-color="#a98249"/>
      <stop offset=".59" stop-color="#c8a56a"/>
      <stop offset=".77" stop-color="#cba561"/>
      <stop offset="1" stop-color="#cea55d"/>
    </linearGradient>
    <linearGradient id="c" x1="44.4" y1="24.33" x2="32.58" y2="44.68" gradientTransform="translate(0 79.53) scale(1 -1)" gradientUnits="userSpaceOnUse">
      <stop offset="0" stop-color="#663500"/>
      <stop offset=".39" stop-color="#a98249"/>
      <stop offset=".59" stop-color="#c8a56a"/>
      <stop offset=".77" stop-color="#cba561"/>
      <stop offset="1" stop-color="#cea55d"/>
    </linearGradient>
    <linearGradient id="d" x1="37.01" y1="44.67" x2="52.44" y2="37.64" gradientTransform="translate(0 79.53) scale(1 -1)" gradientUnits="userSpaceOnUse">
      <stop offset="0" stop-color="#663500"/>
      <stop offset=".39" stop-color="#a98249"/>
      <stop offset=".59" stop-color="#c8a56a"/>
      <stop offset=".77" stop-color="#cba561"/>
      <stop offset="1" stop-color="#cea55d"/>
    </linearGradient>
    <linearGradient id="e" x1="28.73" y1="47.54" x2="40.27" y2="28.42" gradientTransform="translate(0 79.53) scale(1 -1)" gradientUnits="userSpaceOnUse">
      <stop offset="0" stop-color="#663500"/>
      <stop offset=".39" stop-color="#a98249"/>
      <stop offset=".59" stop-color="#c8a56a"/>
      <stop offset=".77" stop-color="#cba561"/>
      <stop offset="1" stop-color="#cea55d"/>
    </linearGradient>
    <linearGradient id="f" x1="33.73" y1="44.92" x2="58.96" y2="35.45" gradientTransform="translate(0 79.53) scale(1 -1)" gradientUnits="userSpaceOnUse">
      <stop offset="0" stop-color="#663500"/>
      <stop offset=".39" stop-color="#a98249"/>
      <stop offset=".59" stop-color="#c8a56a"/>
      <stop offset=".77" stop-color="#cba561"/>
      <stop offset="1" stop-color="#cea55d"/>
    </linearGradient>
    <linearGradient id="g" x1="54.71" y1="30.33" x2="42.89" y2="50.66" gradientTransform="translate(0 79.53) scale(1 -1)" gradientUnits="userSpaceOnUse">
      <stop offset="0" stop-color="#663500"/>
      <stop offset=".39" stop-color="#a98249"/>
      <stop offset=".59" stop-color="#c8a56a"/>
      <stop offset=".77" stop-color="#cba561"/>
      <stop offset="1" stop-color="#cea55d"/>
    </linearGradient>
  </defs>
  <g>
    <path d="M35.96,51.5l-2.09,2.85.07-.11c.58-.9.61-2.05.07-2.98l-.03-.04-6.34-10.96c-.61-1.05-.44-2.38.42-3.25l4.05-4.06.04-.04-2.26,3.35c-.44.66-.47,1.51-.06,2.19l6.02,10.13.23.41c.46.79.41,1.78-.13,2.52h0Z" fill="url(#b)"/>
    <path d="M44.4,51.22l-2.24,3.1c.82-1.46.86-3.24.1-4.74l-1.14-2.26-.07-.14-7.17,7.17,2.09-2.85c.54-.74.6-1.73.13-2.52l-.23-.41c.56.95,1.86,1.14,2.66.37l.57-.54,1.35-1.38c.19-.2.23-.5.09-.74l-6.88-11.88c-.64-1.1-.46-2.49.43-3.4l3.99-4-2.21,3.25c-.48.72-.51,1.65-.07,2.4l4.19,7.05,1.23,2.05,3.4,5.72s0,0,0,.01c.67,1.18.59,2.65-.21,3.75h0Z" fill="url(#c)"/>
    <path d="M49.41,47.13l-7.25,7.18,2.25-3.1c.8-1.1.88-2.56.21-3.75.54.9,1.71,1.2,2.63.68l.81-.47,1.01-1c1.66-1.63,2.01-4.17.87-6.19l-6.62-11.26-1.2-2.24c-.71-1.33-.6-2.25-.17-2.95.03-.05.06-.1.09-.15l2.03-2.93-.29.56c-.38.71-.41,1.56-.09,2.28.03.1.09.21.15.31l7.04,12.14c2.03,3.54,1.43,8-1.47,10.87h0Z" fill="url(#d)"/>
    <path d="M39.09,48.4l-.57.54c-.79.77-2.1.58-2.66-.37l-6.02-10.13c-.41-.68-.38-1.53.06-2.19l2.26-3.35-.33.69c-.37.76-.34,1.66.08,2.39l7.17,12.41Z" fill="url(#e)"/>
    <path d="M48.05,47.69l-.82.47c-.92.52-2.08.22-2.63-.68,0,0,0,0,0-.01l-8.81-14.82c-.44-.74-.41-1.68.07-2.4l2.19-3.24h0s-.19.32-.19.32c-.47.79-.47,1.78-.01,2.58l10.21,17.78h0Z" fill="url(#f)"/>
    <path d="M49.06,46.69l-1.01,1,.3-.34c.77-.86.89-2.11.32-3.1l-9.1-15.77c-.61-1.07-.47-2.4.33-3.32,0,0,.01-.01.01-.02l2.88-2.89,1.27-1.27-2.03,2.93s-.06.09-.09.15c-.42.7-.54,1.63.17,2.95l1.2,2.24,6.62,11.26c1.14,2.02.78,4.57-.87,6.19h0Z" fill="url(#g)"/>
  </g>
  <path d="M14.24,49.31l3.29-3.3.46.87-2.15,2.06s-.07.08-.13.12c-.06.04-.12.1-.18.15-.06.05-.12.1-.17.14v.03c.06-.01.12-.03.18-.05.06-.02.11-.03.17-.05.06-.01.11-.03.16-.04.05,0,.09-.02.11-.03l2.88-.68.57,1.08-2.17,2.01s-.08.07-.14.12c-.06.05-.12.1-.18.15-.06.05-.12.1-.17.14v.03c.06,0,.11-.02.17-.04.06-.01.11-.03.17-.05.06-.01.11-.03.16-.04.05-.01.1-.02.14-.03l2.91-.63.41.77-4.57.9-.51-.96,2.19-2.08s.1-.08.16-.14c.06-.05.12-.1.19-.15.06-.05.12-.09.17-.13v-.02c-.07.02-.14.05-.22.07s-.16.05-.24.07c-.07.02-.14.04-.19.05l-2.94.68-.53-1h0Z" fill="#fff"/>
  <path d="M17.59,54.85l3.49-2.76.56.72-3.49,2.76-.56-.72Z" fill="#fff"/>
  <path d="M19.04,56.65l3.14-3.16.65.64-2.57,2.59,1.79,1.78-.57.57-2.44-2.42h0Z" fill="#fff"/>
  <path d="M22.33,59.75l2.59-3.62.74.53-2.12,2.97,2.06,1.47-.47.65-2.8-2h0Z" fill="#fff"/>
  <path d="M26.03,62.2l2.13-3.91.8.44-2.13,3.91-.8-.44Z" fill="#fff"/>
  <path d="M28.09,63.33l1.58-4.17,3.73,1.41-.27.72-2.87-1.09-.36.96,2.56.97-.27.72-2.56-.97-.39,1.04,2.92,1.1-.27.72-3.77-1.43Z" fill="#fff"/>
  <path d="M33.23,65.13l.69-4.4.85.13,1.76,2.79s.07.1.11.17c.04.07.08.14.13.21.04.07.08.13.1.18h.04c.01-.07.02-.15.03-.25,0-.09.02-.18.03-.25l.38-2.45.86.13-.69,4.4-.84-.13-1.76-2.81c-.06-.09-.12-.2-.19-.31-.07-.11-.12-.21-.16-.27h-.04s-.02.12-.03.22c-.01.1-.03.21-.05.33l-.38,2.44-.86-.13h0Z" fill="#fff"/>
  <path d="M41.06,65.84c-.29.01-.56,0-.83-.03-.26-.03-.49-.1-.69-.2-.2-.1-.36-.24-.48-.41-.12-.17-.19-.39-.2-.66v-.1l.91-.04s0,.03,0,.05v.07c0,.14.06.25.16.34.1.09.25.15.44.18.19.03.41.05.66.03.13,0,.26-.02.38-.04.12-.02.22-.04.32-.08s.18-.07.25-.11c.07-.04.12-.09.16-.15.03-.06.05-.12.05-.19,0-.12-.05-.21-.15-.28-.09-.07-.21-.12-.37-.16-.15-.04-.33-.08-.52-.1-.19-.03-.39-.06-.59-.09s-.4-.07-.6-.13c-.19-.05-.37-.13-.53-.21-.15-.09-.28-.21-.38-.35-.1-.14-.15-.33-.16-.54,0-.21.02-.39.11-.55.08-.16.21-.3.39-.41.17-.11.38-.2.63-.27.25-.06.53-.11.84-.12.3-.01.58,0,.82.04.25.04.46.11.63.21.17.1.31.22.41.38.09.15.15.34.16.55v.09l-.89.04v-.07c-.01-.11-.06-.2-.15-.27-.09-.07-.22-.13-.38-.17-.16-.04-.34-.05-.54-.04-.25.01-.46.04-.63.08-.16.04-.28.1-.36.18-.08.07-.11.16-.11.25,0,.1.05.19.15.25.09.06.22.11.37.14.15.03.33.06.52.09.19.02.39.06.6.09s.4.08.6.13c.19.05.37.12.53.21.16.09.28.21.38.35.09.14.15.32.16.53.02.34-.06.62-.23.83-.17.21-.41.37-.73.48-.31.11-.68.17-1.09.19h.01Z" fill="#fff"/>
  <path d="M48.46,64.45c-.5.16-.95.22-1.35.17-.4-.05-.74-.2-1.02-.47-.28-.26-.51-.65-.67-1.14-.23-.72-.21-1.33.07-1.83.28-.5.79-.87,1.54-1.12.41-.13.8-.19,1.16-.17.36.02.68.12.95.31.26.19.46.46.58.83l-.87.28c-.06-.2-.17-.36-.33-.46-.15-.1-.33-.16-.55-.17-.21,0-.45.03-.7.11-.3.1-.54.24-.72.41-.17.17-.29.38-.33.63-.04.24-.01.51.08.81l.05.15c.1.3.23.53.41.71.18.17.39.27.64.31.24.03.52,0,.83-.1.26-.08.48-.19.65-.33.17-.13.29-.29.35-.46.06-.17.06-.36,0-.56l.84-.27c.12.36.12.69.02,1-.1.31-.29.58-.57.81-.28.23-.63.42-1.05.55h-.01Z" fill="#fff"/>
  <path d="M51.84,63.07l-2.24-3.84,2.53-1.48c.28-.16.54-.24.78-.24s.46.06.65.19c.19.12.36.31.49.54.14.24.21.49.21.75s-.08.51-.25.75l1.7,1.08-.88.51-1.52-.99-1.5.87.82,1.4-.79.46h0ZM51.43,60.56l1.6-.93c.18-.1.29-.24.33-.4.03-.16,0-.33-.1-.5-.07-.11-.14-.2-.23-.25-.09-.05-.19-.08-.3-.07-.11,0-.22.04-.35.11l-1.6.93.65,1.12Z" fill="#fff"/>
  <path d="M56.72,60.03l-2.97-3.32,2.97-2.66.51.57-2.29,2.05.68.76,2.04-1.82.51.57-2.04,1.82.74.83,2.32-2.08.51.57-3.01,2.69h0Z" fill="#fff"/>
  <path d="M60.39,56.67l-2.39-4.25.65-.87,4.76,1.08-.6.8-.96-.23-1.4,1.87.49.85-.56.75ZM60.05,54.35l1-1.35-1.21-.3s-.12-.02-.2-.05c-.08-.02-.17-.04-.26-.07-.09-.02-.17-.05-.25-.07-.08-.02-.13-.03-.17-.04l-.02.03c.05.08.1.17.17.27.06.1.12.2.18.29s.1.16.13.22l.63,1.08h0Z" fill="#fff"/>
  <path d="M64.13,51.15l-3.25-1.68-.78,1.51-.71-.36,1.97-3.83.71.36-.78,1.51,3.25,1.68-.42.81h0Z" fill="#fff"/>
  <path d="M65.64,47.85l-4.19-1.51.31-.86,4.19,1.51-.31.86Z" fill="#fff"/>
  <path d="M66.72,44.27l-4.74.92.21-.99,2.96-.51c.08-.02.17-.03.26-.05.09-.01.18-.03.27-.04.08-.01.16-.02.22-.03v-.04s-.09-.07-.17-.11c-.07-.04-.15-.09-.23-.15-.08-.05-.15-.1-.23-.16l-2.51-1.66.19-.94,3.97,2.75-.21,1.03h0Z" fill="#fff"/>
  <path d="M67.39,40.3l-4.45-.04.04-3.98h.77s-.03,3.08-.03,3.08h1.02s.03-2.73.03-2.73h.77s-.03,2.75-.03,2.75h1.12s.03-3.11.03-3.11h.77s-.04,4.04-.04,4.04h-.01Z" fill="#fff"/>
  <path d="M66.64,31.2c.07.28.11.55.13.82.01.26,0,.5-.06.72-.06.22-.16.4-.31.56-.15.15-.35.26-.61.32-.01,0-.03,0-.05,0s-.03,0-.05,0l-.22-.89h.05s.05,0,.07-.01c.13-.03.23-.11.3-.23.06-.12.1-.27.09-.46,0-.19-.03-.41-.09-.65-.03-.13-.07-.25-.11-.36-.04-.11-.09-.21-.14-.3-.05-.09-.1-.16-.16-.22-.05-.06-.12-.1-.18-.12-.06-.02-.13-.02-.2-.01-.12.03-.2.09-.25.2-.05.1-.08.23-.09.4-.01.16-.01.34,0,.53,0,.19.02.39.03.6,0,.21,0,.41-.01.61-.01.2-.05.39-.11.56-.05.17-.15.32-.27.44-.12.12-.29.21-.5.26-.2.05-.39.05-.56,0-.17-.05-.34-.15-.48-.3-.14-.14-.27-.33-.39-.56-.11-.23-.21-.49-.28-.8-.07-.29-.11-.56-.12-.82,0-.25.02-.47.08-.66.06-.19.16-.35.29-.47.13-.12.3-.21.51-.26l.09-.02.22.87-.07.02c-.1.02-.18.09-.24.2-.05.11-.08.24-.09.4,0,.16.01.34.06.54.06.25.13.45.21.6.07.15.16.26.24.32.09.06.18.08.27.06.1-.02.17-.09.21-.19.04-.1.06-.23.07-.39,0-.16,0-.33,0-.53-.01-.19-.02-.4-.03-.6,0-.21,0-.41.01-.61.01-.2.05-.38.11-.56.06-.17.15-.32.27-.44.12-.12.28-.21.49-.26.33-.08.62-.06.86.06.24.12.45.33.62.62.17.29.3.63.4,1.03h0Z" fill="#fff"/>
  <path d="M65.57,27.91l-4.02,1.9-1.18-2.48c-.13-.28-.19-.54-.17-.78.02-.24.1-.46.25-.66.14-.19.35-.35.61-.48.26-.12.51-.17.76-.16.25.01.47.09.68.24.2.14.37.36.51.65l.77,1.63,1.41-.66.39.83h0ZM63.08,28.08l-.7-1.49c-.09-.2-.22-.33-.39-.39-.16-.06-.34-.04-.53.04-.13.06-.22.14-.29.23-.07.09-.1.2-.1.31,0,.11.02.24.09.38l.7,1.49,1.23-.58Z" fill="#fff"/>
  <path d="M63.63,23.83l-4.77,1.01-.64-.88,2.44-4.22.59.81-.51.85,1.37,1.89.96-.22.55.76h0ZM61.32,23.47l-.98-1.36-.65,1.06s-.06.1-.1.18-.09.15-.15.23c-.05.08-.1.15-.14.22-.04.07-.07.12-.09.15l.03.03c.09-.02.19-.05.31-.08.11-.03.23-.06.33-.09.1-.03.19-.05.25-.06l1.21-.28h0Z" fill="#fff"/>
  <path d="M58.41,17.49c.39.35.66.72.81,1.09.15.37.18.74.09,1.12-.09.38-.31.76-.66,1.14-.51.56-1.05.84-1.63.84s-1.15-.26-1.73-.79c-.32-.29-.56-.6-.72-.93-.16-.33-.22-.65-.19-.98.03-.32.18-.63.44-.91l.67.62c-.14.16-.23.33-.24.51-.01.18.02.37.12.56.1.19.24.38.44.56.23.21.47.36.71.42.24.07.48.06.71-.02.23-.08.45-.23.66-.46l.1-.11c.21-.23.35-.47.41-.71.06-.24.05-.47-.04-.71-.09-.23-.25-.46-.49-.68-.2-.18-.4-.32-.61-.41-.2-.08-.39-.11-.57-.08-.18.03-.34.12-.49.28l-.65-.6c.25-.28.54-.45.86-.51.32-.06.64-.02.99.1.34.13.67.34,1,.64h0Z" fill="#fff"/>
  <path d="M55.57,15.24l-2.29,3.82-3.42-2.05.4-.66,2.64,1.58.53-.88-2.35-1.41.39-.66,2.35,1.41.57-.96-2.67-1.6.39-.66,3.46,2.07h0Z" fill="#fff"/>
  <path d="M14.87,43.87c-.51-2.01-.77-4.1-.77-6.19,0-13.91,11.31-25.22,25.22-25.22,2.56,0,5.08.38,7.5,1.13l-.15.48c-2.37-.74-4.85-1.11-7.35-1.11-13.63,0-24.72,11.09-24.72,24.72,0,2.05.25,4.1.75,6.07l-.48.12Z" fill="#fff"/>
</svg>