<svg width="48" height="48" viewBox="0 0 48 48" fill="none" xmlns="http://www.w3.org/2000/svg">
<path d="M19.7389 34.5557C19.7197 34.5557 19.7 34.5488 19.6846 34.5355C19.6511 34.5073 19.6452 34.4579 19.6708 34.4223C19.8102 34.2287 19.9001 33.9943 19.9538 33.6837C19.9714 33.5837 19.9804 33.4806 19.9804 33.3758C19.9804 33.0865 19.9097 32.7987 19.7756 32.5435C19.7543 32.5031 19.7314 32.4633 19.7069 32.4244C19.7069 32.4244 16.5073 26.8875 16.3349 26.587C16.2625 26.4605 16.1832 26.3329 16.1029 26.2036C15.8321 25.767 15.5517 25.3154 15.4634 24.8118C15.3618 24.2338 15.564 23.609 15.9917 23.1819L18.6062 20.5688C18.6226 20.5524 18.6439 20.5443 18.6657 20.5443C18.6854 20.5443 18.7056 20.5512 18.7216 20.5655C18.7551 20.5953 18.7594 20.6454 18.7322 20.6805C18.5476 20.916 18.4242 21.1962 18.3763 21.4909C18.3609 21.5871 18.3529 21.6856 18.3529 21.7824C18.3529 22.0541 18.412 22.3158 18.5295 22.5588C18.744 23.0012 19.0052 23.4292 19.2579 23.8429C19.3872 24.0546 19.5159 24.2662 19.6399 24.48L19.8719 24.8815C20.0134 25.1262 20.1549 25.3702 20.2954 25.6159L23.1173 30.5014L23.9069 29.7128C24.0064 29.6128 24.0271 29.4575 23.9563 29.3352L22.24 26.3641C21.9862 25.8568 21.6861 25.3607 21.3962 24.8804C21.2488 24.6364 21.1014 24.3934 20.9604 24.1488L19.6734 21.9233C19.5362 21.6866 19.3941 21.4414 19.3186 21.1649C19.2164 20.7937 19.2446 20.381 19.3968 20.0029C19.5846 19.5365 19.9586 19.185 20.3204 18.8452C20.4151 18.7559 20.5093 18.6677 20.5992 18.5784L21.8436 17.3344C21.9016 17.2765 21.9655 17.219 22.0298 17.16C22.1565 17.0451 22.2879 16.926 22.3799 16.7994C22.3964 16.7766 22.4219 16.7649 22.448 16.7649C22.4656 16.7649 22.4826 16.7702 22.4975 16.7808C22.5353 16.808 22.5432 16.8606 22.5161 16.8984C22.3501 17.127 22.2395 17.395 22.1964 17.6726C22.182 17.7625 22.1751 17.8561 22.1751 17.9497C22.1751 18.2358 22.2405 18.5092 22.3693 18.7624C22.3985 18.8187 22.4283 18.8708 22.4618 18.9214C22.4618 18.9214 28.5931 29.5362 28.8884 30.0467C28.907 30.0276 28.9251 30.0084 28.9432 29.9882C29.2395 29.6591 29.4028 29.2337 29.4028 28.7908C29.4028 28.5142 29.3417 28.2493 29.2209 28.0036C29.1852 27.9313 29.1453 27.8628 29.1006 27.7957L23.353 17.8456C23.1833 17.5462 23.0955 17.2126 23.0955 16.8739C23.0955 16.7665 23.1046 16.6591 23.1216 16.5548C23.1434 16.4219 23.179 16.29 23.228 16.164C23.2971 15.9863 23.3919 15.8204 23.5089 15.6705L26.2494 12.9307C26.2659 12.9142 26.2872 12.9062 26.309 12.9062C26.3287 12.9062 26.3489 12.9132 26.3649 12.9275C26.3979 12.9568 26.4027 13.0073 26.3755 13.0424C26.1914 13.2785 26.0685 13.5577 26.0212 13.8507C26.0052 13.9464 25.9972 14.0448 25.9972 14.1426C25.9972 14.3889 26.0457 14.6266 26.142 14.8494C26.142 14.8499 26.142 14.8505 26.1425 14.851C26.5405 15.5386 26.9342 16.2155 27.3273 16.8925C27.9536 17.9694 28.5798 19.0469 29.198 20.1285C29.3454 20.3864 29.4917 20.6453 29.6375 20.9049C29.9849 21.5206 30.344 22.1577 30.7175 22.7725C31.3294 23.7791 31.6198 24.982 31.5358 26.16C31.4496 27.3672 30.9697 28.5365 30.1849 29.4511L30.1312 29.5124L29.6396 30.0054L25.2402 34.4026C25.204 34.4393 25.1678 34.4761 25.1295 34.5106C25.1135 34.525 25.0933 34.5323 25.0726 34.5323C25.0539 34.5323 25.0359 34.5266 25.0204 34.5144C24.988 34.4888 24.9789 34.4435 24.9991 34.4074C25.063 34.293 25.1045 34.1659 25.1449 34.0431L25.1678 33.974C25.2194 33.8203 25.2614 33.6603 25.2928 33.4976C25.3545 33.1764 25.3742 32.8456 25.3519 32.5154C25.2918 31.6273 24.8752 30.9151 24.4336 30.1611L24.3373 29.9958L19.799 34.5318C19.7825 34.5483 19.7607 34.5557 19.7389 34.5557Z" fill="#CDAB73"/>
<path d="M23.5465 5.35739C23.552 5.16194 23.398 4.99863 23.2025 4.99685C20.828 4.97524 18.4706 5.41417 16.2614 6.29053C13.9424 7.21043 11.8353 8.59301 10.0686 10.3539C8.30193 12.1148 6.91279 14.217 5.98596 16.5323C5.10304 18.7379 4.6573 21.0928 4.67224 23.4662C4.67347 23.6618 4.83641 23.8163 5.03197 23.8113C5.22753 23.8063 5.38163 23.6436 5.38056 23.448C5.36799 21.1709 5.79651 18.9116 6.64368 16.7953C7.53476 14.5694 8.8703 12.5482 10.5688 10.8553C12.2673 9.16232 14.2932 7.83308 16.5227 6.94867C18.6425 6.10779 20.9041 5.6858 23.1824 5.70478C23.378 5.70641 23.5409 5.55284 23.5465 5.35739Z" fill="#CDAB73"/>
<path d="M27.0983 4.93721C27.2023 4.39486 27.727 4.03699 28.2636 4.16759C31.4645 4.94666 34.4319 6.49741 36.9028 8.69059C39.6233 11.1055 41.6412 14.2101 42.7436 17.6759C43.8459 21.1416 43.9922 24.8403 43.1665 28.382C42.3407 31.9238 40.5739 35.1774 38.0522 37.799C35.5305 40.4205 32.3476 42.3136 28.8393 43.2775C25.331 44.2414 21.6267 44.2404 18.1186 43.2755C14.6107 42.3107 11.4286 40.4172 8.90771 37.7951C6.6182 35.4136 4.95101 32.5112 4.04627 29.3451C3.89451 28.8141 4.23151 28.2756 4.76944 28.1504L6.29908 27.7943C6.83694 27.669 7.37153 28.0047 7.5289 28.534C8.28424 31.0748 9.63785 33.4033 11.4819 35.3214C13.5576 37.4804 16.1776 39.0397 19.0659 39.8341C21.9542 40.6285 25.0035 40.6287 27.8921 39.8351C30.7806 39.0415 33.4017 37.4828 35.478 35.3244C37.5541 33.166 39.009 30.4874 39.6889 27.5714C40.3688 24.6553 40.2489 21.6095 39.3413 18.756C38.4336 15.9025 36.7716 13.3468 34.5317 11.3586C32.4833 9.54033 30.0204 8.25869 27.3641 7.62169C26.9523 7.52295 26.55 7.79718 26.4702 8.21305L27.0983 4.93721Z" fill="#CDAB73"/>
</svg>
